:SAMPLES-PER-SECOND 30
:FULLY-SPECIFIED
:DEGREES
326
root  -9.065555212 38.80177896 11.3146444 16.67999268 -69.44499969 -8.296020508
lowerback  15.95849991 8.486539841 -0.9121140242
upperback  6.478630066 10.55459976 -3.08453989
thorax  -1.476799965 5.148779869 -4.471459866
lowerneck  7.687190056 5.469749928 -1.229230046
upperneck  25.8295002 3.515870094 15.65149975
head  6.175940037 2.264600039 5.402470112
lclavicle  0 -9.442270133e-015 7.951389973e-016
lhumerus  -5.837049961 -36.88499832 91.90110016
lradius  9.173745888e-032 -3.409877989e-031 105.0579987
lwrist  -7.062250077e-031 7.062250077e-031 59.95560074
lhand  -1.496451383e-031 -27.76390076 20.11240005
lfingers  90 7.125020027 -90
lthumb  89.89689403 5.08795885 91.16245106
rclavicle  0 -9.442270133e-015 7.951389973e-016
rhumerus  33.12200165 15.01580048 -85.729599
rradius  7.421417101e-032 3.452255744e-031 77.86759949
rwrist  3.531125038e-031 7.062250077e-031 -71.25969696
rhand  -7.920061211e-032 -33.2840004 9.303460121
rfingers  -90 -7.125020027 -90
rthumb  -92.93752616 -24.25625642 -97.11982154
rfemur  -13.3572998 -3.416559935 11.32190037
rtibia  -0 0 57.5237999
rfoot  -0 -0.3172740042 -30.95569992
rtoes  5.373923086 19.29304026 -105.8922705
lfemur  -50.36940002 -1.102010012 -8.0418396
ltibia  -0 0 42.82640076
lfoot  -0 10.72609997 -12.05970001
ltoes  -4.250644065 -19.5611806 -102.515957
327
root  -8.966377589 39.0762209 11.25508857 16.64501953 -68.64199829 -7.752990723
lowerback  15.56019974 8.111060143 -0.5175380111
upperback  6.371419907 10.14570045 -3.250060081
thorax  -1.311450005 4.965479851 -4.735330105
lowerneck  7.490530014 5.36232996 -1.290249944
upperneck  25.41810036 3.402940035 15.82089996
head  6.075339794 2.214119911 5.453889847
lclavicle  0 -9.442270133e-015 7.951389973e-016
lhumerus  -6.207300186 -36.51259995 91.57790375
lradius  9.533880121e-032 -3.399984608e-031 105.6640015
lwrist  -3.531125038e-031 1.059337512e-030 60.11740112
lhand  -1.496451383e-031 -27.76390076 20.11240005
lfingers  90 7.125020027 -90
lthumb  89.89689403 5.08795885 91.16245106
rclavicle  0 -9.442270133e-015 7.951389973e-016
rhumerus  32.26010132 15.36629963 -85.71630096
rradius  7.475996659e-032 3.451077915e-031 77.77700043
rwrist  3.531125038e-031 1.412450015e-030 -70.8553009
rhand  -7.920061211e-032 -33.2840004 9.303460121
rfingers  -90 -7.125020027 -90
rthumb  -92.93752616 -24.25625642 -97.11982154
rfemur  -13.85340023 -2.433909893 12.21450043
rtibia  -0 0 56.41809845
rfoot  -0 -1.607579947 -33.96730042
rtoes  5.373923086 19.29304026 -105.8922705
lfemur  -50.05820084 -1.318760037 -7.680170059
ltibia  -0 0 40.38679886
lfoot  -0 13.45339966 -12.06000042
ltoes  -4.250644065 -19.5611806 -102.515957
328
root  -8.899600112 39.32955584 11.28562191 16.684021 -68.3010025 -7.729003906
lowerback  15.125 7.862249851 -0.5692099929
upperback  6.470240116 9.855759621 -2.775710106
thorax  -1.099820018 4.819449902 -4.102739811
lowerneck  7.166820049 5.382510185 -2.324719906
upperneck  25.14319992 3.483469963 15.81540012
head  5.990890026 2.176959991 5.62638998
lclavicle  0 -9.442270133e-015 7.951389973e-016
lhumerus  -6.937960148 -35.31409836 92.42299652
lradius  9.917197264e-032 -3.389002216e-031 106.310997
lwrist  -7.062250077e-031 3.531125038e-031 59.87340164
lhand  -1.496451383e-031 -27.76390076 20.11240005
lfingers  90 7.125020027 -90
lthumb  89.89689403 5.08795885 91.16245106
rclavicle  0 -9.442270133e-015 7.951389973e-016
rhumerus  31.07290077 16.44479942 -84.86820221
rradius  7.581549738e-032 3.448774431e-031 77.60169983
rwrist  0 3.531125038e-031 -70.7779007
rhand  -7.920061211e-032 -33.2840004 9.303460121
rfingers  -90 -7.125020027 -90
rthumb  -92.93752616 -24.25625642 -97.11982154
rfemur  -13.77400017 -1.342700005 12.85449982
rtibia  -0 0 55.13209915
rfoot  -0 -3.212199926 -35.77420044
rtoes  5.373923086 19.29304026 -105.8922705
lfemur  -49.19839859 -2.087660074 -6.871409893
ltibia  -0 0 38.21820068
lfoot  -0 15.28190041 -11.00510025
ltoes  -4.250644065 -19.5611806 -102.515957
329
root  -8.781644115 39.53888961 11.2523552 17.35198975 -67.60299683 -7.937011719
lowerback  14.72259998 7.475769997 -0.5169529915
upperback  6.27507019 9.403429985 -2.344249964
thorax  -1.194210052 4.594379902 -3.581890106
lowerneck  7.161940098 5.386360168 -3.157469988
upperneck  24.5632 3.627039909 15.59430027
head  5.766379833 2.156589985 5.670159817
lclavicle  0 -9.442270133e-015 7.951389973e-016
lhumerus  -7.83795023 -34.1548996 93.15190125
lradius  1.038234192e-031 -3.375042785e-031 107.098999
lwrist  -7.062250077e-031 3.531125038e-031 59.3219986
lhand  -1.496451383e-031 -27.76390076 20.11240005
lfingers  90 7.125020027 -90
lthumb  89.89689403 5.08795885 91.16245106
rclavicle  0 -9.442270133e-015 7.951389973e-016
rhumerus  29.50200081 17.38059998 -84.34670258
rradius  7.728650371e-032 3.445507752e-031 77.35720062
rwrist  3.531125038e-031 3.531125038e-031 -70.84290314
rhand  -7.920061211e-032 -33.2840004 9.303460121
rfingers  -90 -7.125020027 -90
rthumb  -92.93752616 -24.25625642 -97.11982154
rfemur  -14.13570023 -0.6766359806 13.85830021
rtibia  -0 0 53.94530106
rfoot  -0 -4.959040165 -36.86780167
rtoes  5.373923086 19.29304026 -105.8922705
lfemur  -49.05130005 -2.630110025 -5.846660137
ltibia  -0 0 36.29679871
lfoot  -0 16.83449936 -10.52999973
ltoes  -4.250644065 -19.5611806 -102.515957
